Coordinates
version=1
nRows=6
nColumns=38
inDegrees=yes

Units are S.I. units (second, meters, Newtons, ...)
Angles are in degrees.

endheader
time	pelvis_tilt	pelvis_list	pelvis_rotation	pelvis_tx	pelvis_ty	pelvis_tz	hip_flexion_r	hip_adduction_r	hip_rotation_r	knee_angle_r	ankle_angle_r	subtalar_angle_r	mtp_angle_r	hip_flexion_l	hip_adduction_l	hip_rotation_l	knee_angle_l	ankle_angle_l	subtalar_angle_l	mtp_angle_l	lumbar_extension	lumbar_bending	lumbar_rotation	arm_flex_r	arm_add_r	arm_rot_r	elbow_flex_r	pro_sup_r	wrist_flex_r	wrist_dev_r	arm_flex_l	arm_add_l	arm_rot_l	elbow_flex_l	pro_sup_l	wrist_flex_l	wrist_dev_l
      0.52000000	     -8.03570057	     -1.66060137	     -0.34538125	     -0.27693072	      0.86161080	      2.60075080	     28.18203008	      1.91393107	     -0.87545514	    -14.32982236	     -5.55913806	      0.00000000	      0.00000000	      1.02409382	     -3.27222936	      0.47803789	    -65.90126622	    -23.76642786	      0.00000000	      0.00000000	     -0.49651102	      3.48357008	     -8.92516049	    -21.62611880	    -25.37476568	     14.48800843	    118.04665863	     79.12506711	      0.00000000	      0.00000000	      0.37559349	    -13.50298346	     18.86636443	    127.03729937	    103.52136686	      0.00000000	      0.00000000
      0.53000000	     -6.92161491	     -2.56113984	     -0.94257060	     -0.27983460	      0.85433457	      2.60377260	     28.85022573	      3.48618560	     -0.41255231	    -20.67554887	     -1.93890602	      0.00000000	      0.00000000	      2.01394142	     -4.41123212	      0.54759868	    -70.85863938	    -21.78610783	      0.00000000	      0.00000000	     -2.66346224	      4.31379454	     -7.63093595	    -18.86780136	    -25.26540426	     15.73919615	    116.71150048	     77.84912497	      0.00000000	      0.00000000	      0.43636819	    -13.54219745	     19.11949779	    126.34544843	    103.10215890	      0.00000000	      0.00000000
      0.54000000	     -5.76017253	     -3.56146409	     -1.54719829	     -0.28323430	      0.84634761	      2.60745100	     29.46969439	      5.23628703	      0.18541951	    -26.95577316	      1.72545644	      0.00000000	      0.00000000	      3.18882727	     -5.65327721	      0.42996695	    -75.93358289	    -19.69275010	      0.00000000	      0.00000000	     -4.75059317	      5.19950186	     -6.12867180	    -15.91766199	    -25.19122608	     17.22846735	    115.21361970	     76.65005311	      0.00000000	      0.00000000	      0.38446471	    -13.48013686	     19.23649899	    125.40181482	    102.72118561	      0.00000000	      0.00000000
      0.55000000	     -4.69637472	     -4.62340158	     -2.20032140	     -0.28675981	      0.83776358	      2.61122193	     29.96255594	      7.12960492	      0.90186362	    -32.80150846	      5.31491118	      0.00000000	      0.00000000	      4.66214707	     -6.96425310	      0.11503744	    -80.96115660	    -17.52435279	      0.00000000	      0.00000000	     -6.61320723	      6.15590686	     -4.42947489	    -12.76986373	    -25.16864863	     18.96445829	    113.52752168	     75.63901472	      0.00000000	      0.00000000	      0.13640475	    -13.29102160	     19.20270038	    124.13938001	    102.41766136	      0.00000000	      0.00000000
      0.56000000	     -3.93871393	     -5.68556491	     -2.95605695	     -0.29011803	      0.82919973	      2.61424720	     30.22817760	      9.05875978	      1.67271580	    -37.72362973	      8.67157311	      0.00000000	      0.00000000	      6.56701494	     -8.27264341	     -0.34783246	    -85.70361765	    -15.35027494	      0.00000000	      0.00000000	     -8.07938016	      7.18243520	     -2.59268075	     -9.43598190	    -25.20622042	     20.90556099	    111.65534904	     74.95625574	      0.00000000	      0.00000000	     -0.40095198	    -12.97154343	     19.02664457	    122.52512868	    102.23469758	      0.00000000	      0.00000000
      0.57000000	     -3.65196445	     -6.68686902	     -3.81848911	     -0.29333392	      0.82188352	      2.61605070	     30.16321363	     10.83535728	      2.38058688	    -41.28908864	     11.65095210	      0.00000000	      0.00000000	      8.99281219	     -9.47502698	     -0.82613791	    -89.91764028	    -13.25629748	      0.00000000	      0.00000000	     -9.03217902	      8.22555243	     -0.72575918	     -5.95327860	    -25.27943091	     22.95397692	    109.66548295	     74.72610214	      0.00000000	      0.00000000	     -1.28019296	    -12.56601757	     18.73137047	    120.61513080	    102.19484286	      0.00000000	      0.00000000
